<svg id="Layer_1" data-name="Layer 1" xmlns="http://www.w3.org/2000/svg" viewBox="0 0 56 56"><defs><style>.cls-1{fill:#fff;}.cls-2{fill:none;stroke:#000;stroke-linecap:round;stroke-linejoin:round;stroke-width:2px;}</style></defs><title>call</title><circle class="cls-1" cx="28" cy="28" r="28"/><path class="cls-2" d="M974.38,547.21v4.2a2.84,2.84,0,0,1-.91,2.08,3,3,0,0,1-1,.59,2.8,2.8,0,0,1-1.15.13,27.75,27.75,0,0,1-12.08-4.3,27.15,27.15,0,0,1-8.4-8.4,27.78,27.78,0,0,1-4.3-12.13,3,3,0,0,1,.14-1.15,2.56,2.56,0,0,1,.59-1,2.83,2.83,0,0,1,.93-.68,2.94,2.94,0,0,1,1.13-.24h4.2a2.83,2.83,0,0,1,1.85.68,2.75,2.75,0,0,1,1,1.73,18.33,18.33,0,0,0,1,3.94,2.8,2.8,0,0,1,.12,1.57,2.76,2.76,0,0,1-.75,1.38l-1.78,1.78a22.5,22.5,0,0,0,8.4,8.4l1.78-1.78a2.79,2.79,0,0,1,2.95-.63,18.33,18.33,0,0,0,3.94,1,2.81,2.81,0,0,1,2.41,2.84Z" transform="translate(-932.38 -512.32)"/></svg>