<svg id="Layer_1" data-name="Layer 1" xmlns="http://www.w3.org/2000/svg" xmlns:xlink="http://www.w3.org/1999/xlink" viewBox="0 0 360.62 256.19"><defs><style>.cls-1{fill:#fff;}.cls-2{fill:#212429;}.cls-3{mask:url(#mask);}.cls-4{opacity:0.2;}.cls-5{fill:#a7fed9;}.cls-6{fill:#ebb3ff;}.cls-7{fill:#ccc;}.cls-8{fill:url(#linear-gradient);}.cls-9{fill:#666;}</style><mask id="mask" x="0" y="0" width="360.62" height="256.19" maskUnits="userSpaceOnUse"><g transform="translate(-827.38 -371)"><g id="mask0_5_63" data-name="mask0 5 63"><path class="cls-1" d="M854.49,388.31h306.4c15,0,27.11,13.2,27.11,29.49V597.7c0,16.29-12.14,29.49-27.11,29.49H854.49c-15,0-27.11-13.2-27.11-29.49V417.8C827.38,401.51,839.52,388.31,854.49,388.31Z"/></g></g></mask><linearGradient id="linear-gradient" x1="583.33" y1="899.99" x2="583.33" y2="865.76" gradientTransform="matrix(1, 0, 0, -1, 564, 1316)" gradientUnits="userSpaceOnUse"><stop offset="0" stop-color="#bdbdbd"/><stop offset="0.53" stop-color="#fff"/><stop offset="1" stop-color="#bdbdbd"/></linearGradient></defs><title>card-front</title><path class="cls-2" d="M854.49,388.31h306.4c15,0,27.11,13.2,27.11,29.49V597.7c0,16.29-12.14,29.49-27.11,29.49H854.49c-15,0-27.11-13.2-27.11-29.49V417.8C827.38,401.51,839.52,388.31,854.49,388.31Z" transform="translate(-827.38 -371)"/><g class="cls-3"><g class="cls-4"><path class="cls-5" d="M1002.27,415.24c0-24.43,18.2-44.24,40.67-44.24s40.67,19.81,40.67,44.24v59.62H1050c-26.37,0-47.74-23.25-47.74-51.93Z" transform="translate(-827.38 -371)"/><path class="cls-6" d="M1150,435.85c0-16.7-12.44-30.23-27.79-30.23s-27.8,13.53-27.8,30.23v39h23.76c17.58,0,31.83-15.5,31.83-34.62Z" transform="translate(-827.38 -371)"/><path class="cls-7" d="M1052.43,514.29c0,9.77,7.28,17.7,16.27,17.7s16.26-7.93,16.26-17.7V492.17h-14.23c-10.11,0-18.3,8.92-18.3,19.91Z" transform="translate(-827.38 -371)"/></g></g><path class="cls-8" d="M1166.3,421.13v23.95c0,2.82-2,5.14-4.49,5.14l-28.94,0c-2.48,0-4.51-2.31-4.51-5.12l0-23.95c0-2.84,2-5.14,4.5-5.14l29,0C1164.27,416,1166.3,418.29,1166.3,421.13Z" transform="translate(-827.38 -371)"/><path class="cls-9" d="M1144.13,445.78a.43.43,0,0,1-.4-.27.54.54,0,0,1,.2-.68,4.92,4.92,0,0,0,2-2.3c.65-1.55.48-3.23.2-3.38-.07,0-.34.12-.51.22a1.87,1.87,0,0,1-1.68.31,2.32,2.32,0,0,1-1.15-1.25c-1-2.1-1.34-7.56-.26-10.28a2.38,2.38,0,0,1,1.44-1.6,1.89,1.89,0,0,1,1.52.36c.33.19.5.28.6.21.43-.29.42-2-.18-3.4a4.65,4.65,0,0,0-2-2.29.54.54,0,0,1-.19-.68.42.42,0,0,1,.6-.22,5.69,5.69,0,0,1,2.45,2.77c.62,1.46.91,4-.17,4.7a1.31,1.31,0,0,1-1.47-.16,1.2,1.2,0,0,0-.9-.27c-.4.11-.67.61-.83,1a16.2,16.2,0,0,0,.22,9.39,1.44,1.44,0,0,0,.66.77c.3.13.59,0,1-.25a1.31,1.31,0,0,1,1.31-.24c1,.56.94,3,.21,4.73a5.77,5.77,0,0,1-2.44,2.77Z" transform="translate(-827.38 -371)"/><path class="cls-9" d="M1141.51,429.4h-7.34c-.22,0-.4-.34-.4-.74s.18-.74.39-.74h7.34c.23,0,.41.34.41.74S1141.74,429.4,1141.51,429.4Z" transform="translate(-827.38 -371)"/><path class="cls-9" d="M1141.5,438.34h-7.33c-.22,0-.4-.35-.4-.75s.19-.74.4-.74h7.33c.23,0,.41.34.41.74S1141.73,438.34,1141.5,438.34Z" transform="translate(-827.38 -371)"/><path class="cls-9" d="M1151.89,445.78a.36.36,0,0,1-.2-.06,5.73,5.73,0,0,1-2.46-2.78c-.73-1.75-.79-4.19.21-4.75a1.28,1.28,0,0,1,1.3.22c.42.23.71.38,1,.26a1.56,1.56,0,0,0,.65-.78c.89-1.86,1.16-7.06.21-9.43-.16-.41-.43-.93-.83-1a.51.51,0,0,1-.34-.61.47.47,0,0,1,.55-.38,2.4,2.4,0,0,1,1.45,1.59c1.08,2.73.77,8.23-.26,10.34a2.33,2.33,0,0,1-1.14,1.25,1.89,1.89,0,0,1-1.7-.31c-.17-.1-.43-.25-.5-.22-.27.15-.45,1.84.21,3.4a4.74,4.74,0,0,0,2.06,2.3.54.54,0,0,1,.19.69A.42.42,0,0,1,1151.89,445.78Z" transform="translate(-827.38 -371)"/><path class="cls-9" d="M1150.66,426.43a.43.43,0,0,1-.4-.31,5.19,5.19,0,0,1,1.88-5.59.4.4,0,0,1,.57.19.5.5,0,0,1-.18.62,4.24,4.24,0,0,0-1.48,4.48.46.46,0,0,1-.27.58A.18.18,0,0,1,1150.66,426.43Z" transform="translate(-827.38 -371)"/><path class="cls-9" d="M1161.84,429.4h-7.33c-.23,0-.4-.34-.4-.74s.18-.74.4-.74h7.33c.23,0,.4.34.4.74S1162.06,429.4,1161.84,429.4Z" transform="translate(-827.38 -371)"/><path class="cls-9" d="M1161.84,438.34h-7.33c-.23,0-.4-.35-.4-.75s.18-.74.4-.74h7.33c.23,0,.4.34.4.74S1162.07,438.34,1161.84,438.34Z" transform="translate(-827.38 -371)"/><path class="cls-1" d="M856.74,444V423.38H866a8.31,8.31,0,0,1,5.37,1.47,4.8,4.8,0,0,1,1.82,3.9,5.35,5.35,0,0,1-.73,2.83,5,5,0,0,1-2,1.83,6.39,6.39,0,0,1-2.93.65l.52-1.21a7.27,7.27,0,0,1,3.17.65,4.67,4.67,0,0,1,2.14,1.85,5.53,5.53,0,0,1,.79,3,5,5,0,0,1-1.93,4.16,9.21,9.21,0,0,1-5.66,1.47Zm4.37-3.59h5.12a4.64,4.64,0,0,0,2.58-.59,2.23,2.23,0,0,0,.89-1.95,2.19,2.19,0,0,0-.89-1.92,4.3,4.3,0,0,0-2.58-.65h-5.45v-3.48h4.69a4.17,4.17,0,0,0,2.44-.59,2.12,2.12,0,0,0,.87-1.85,2,2,0,0,0-.87-1.8,4,4,0,0,0-2.44-.62h-4.36ZM875,444l8.46-20.64h4.34L896.27,444h-4.61l-6.95-18.22h1.74l-7,18.22Zm4.23-4.42,1.17-3.63h9.76l1.19,3.63Zm19,4.42V423.38h3.64l11.2,14.86H911.3V423.38h4.34V444H912l-11.23-14.86h1.76V444Zm25.83-4.71-.24-5.52,9.08-10.41h4.88L929.6,433l-2.44,2.84ZM920.13,444V423.38h4.37V444Zm13,0-6.75-9,2.87-3.39,9,12.38Z" transform="translate(-827.38 -371)"/><path class="cls-1" d="M857.28,505.89V492.68l1.33,1.45h-4v-2.69h5.74v14.45Zm5.65,0v-2.16l5.12-5.27a5.85,5.85,0,0,0,.9-1.07,3.49,3.49,0,0,0,.38-.87,2.8,2.8,0,0,0,.11-.72,1.6,1.6,0,0,0-.55-1.32,2.28,2.28,0,0,0-1.58-.48,3.56,3.56,0,0,0-1.55.35,3.14,3.14,0,0,0-1.2,1.1l-2.24-1.57a5.38,5.38,0,0,1,2.13-2,6.54,6.54,0,0,1,3.15-.73,5.77,5.77,0,0,1,2.58.54,3.91,3.91,0,0,1,1.73,1.47,4.08,4.08,0,0,1,.62,2.27,5.59,5.59,0,0,1-.17,1.4,4.42,4.42,0,0,1-.64,1.45,10.49,10.49,0,0,1-1.41,1.71l-4.25,4.36-.59-1.22H873v2.72Zm16,.25a10.05,10.05,0,0,1-2.76-.39,7,7,0,0,1-2.31-1.16l1.2-2.56a5.83,5.83,0,0,0,1.76,1,6,6,0,0,0,2,.35,3,3,0,0,0,1.82-.49,1.73,1.73,0,0,0,.08-2.67,3.08,3.08,0,0,0-1.9-.47h-1.4v-2.21l3.7-4.56.34,1.2h-7v-2.69h9.3v2.17l-3.68,4.56-1.55-1h.89a5.16,5.16,0,0,1,3.7,1.2,4.08,4.08,0,0,1,1.25,3.07,4.64,4.64,0,0,1-.59,2.3,4.38,4.38,0,0,1-1.8,1.71A6.49,6.49,0,0,1,878.93,506.14Zm7.15-3.28v-2.25l6.26-9.17h3.23l-6.13,9.17-1.5-.48H898.4v2.73Zm7.15,3v-3l.1-2.73v-2.7h2.9v8.46Zm16.74.25a9.93,9.93,0,0,1-2.75-.39,7.32,7.32,0,0,1-2.32-1.16l1.22-2.56a5.84,5.84,0,0,0,1.74,1,6,6,0,0,0,2,.35,3,3,0,0,0,1.82-.49,1.62,1.62,0,0,0,.67-1.39,1.84,1.84,0,0,0-.27-1,1.63,1.63,0,0,0-1-.66,6.11,6.11,0,0,0-1.87-.22h-3.4l.68-8.14h8.11v2.69h-7l1.6-1.53-.48,5.8-1.59-1.53H910a7.14,7.14,0,0,1,3.17.6,3.82,3.82,0,0,1,1.76,1.59,4.67,4.67,0,0,1,.55,2.29,4.88,4.88,0,0,1-.59,2.38,4.46,4.46,0,0,1-1.82,1.75A6.49,6.49,0,0,1,910,506.14Zm13.09,0a5.86,5.86,0,0,1-3.17-.83,5.31,5.31,0,0,1-2-2.41,11,11,0,0,1,.13-8.16,6.33,6.33,0,0,1,2.39-2.64,6.9,6.9,0,0,1,3.53-.91,8.51,8.51,0,0,1,2,.25,5.2,5.2,0,0,1,1.67.74l-1.14,2.46a3.28,3.28,0,0,0-1.18-.56,5.11,5.11,0,0,0-1.31-.16,3.48,3.48,0,0,0-2.73,1.13,5,5,0,0,0-1,3.37v.83a4.63,4.63,0,0,0,.12.9l-.86-.86a4.16,4.16,0,0,1,.93-1.35,3.58,3.58,0,0,1,1.35-.82,5.14,5.14,0,0,1,1.75-.29,4.76,4.76,0,0,1,2.31.56,4.17,4.17,0,0,1,1.63,1.57,4.37,4.37,0,0,1,.63,2.37,4.77,4.77,0,0,1-.68,2.56,4.62,4.62,0,0,1-1.81,1.67A5.37,5.37,0,0,1,923.06,506.14Zm-.17-2.5a2.45,2.45,0,0,0,1.14-.25,1.87,1.87,0,0,0,.79-.76,2.24,2.24,0,0,0,.29-1.13,2,2,0,0,0-.63-1.57,2.21,2.21,0,0,0-1.63-.6,2.37,2.37,0,0,0-1.2.29,2,2,0,0,0-.81.76,2.15,2.15,0,0,0-.29,1.12,2.19,2.19,0,0,0,.29,1.11,2,2,0,0,0,.8.76A2.65,2.65,0,0,0,922.89,503.64Zm8.76,2.25L937,492.72l.79,1.45h-7.15L932,492.6v3.92h-2.73v-5.08h10.65v2.17L935,505.89Zm15.22.25a7.37,7.37,0,0,1-2.93-.54,4.65,4.65,0,0,1-2-1.54,4,4,0,0,1-.7-2.36,3.7,3.7,0,0,1,.68-2.27,4.21,4.21,0,0,1,1.95-1.42,9,9,0,0,1,5.91,0,4,4,0,0,1,1.95,1.42,3.65,3.65,0,0,1,.7,2.27,4,4,0,0,1-.7,2.36,4.59,4.59,0,0,1-2,1.54A7.42,7.42,0,0,1,946.87,506.14Zm0-2.46a2.75,2.75,0,0,0,1.82-.55,1.89,1.89,0,0,0,.68-1.53,1.82,1.82,0,0,0-.68-1.51,3.22,3.22,0,0,0-3.63,0,1.84,1.84,0,0,0-.66,1.51,1.91,1.91,0,0,0,.66,1.53A2.75,2.75,0,0,0,946.87,503.68Zm0-4.48a7.41,7.41,0,0,1-2.7-.45,4,4,0,0,1-1.78-1.32,3.56,3.56,0,0,1-.63-2.11,3.71,3.71,0,0,1,.65-2.19,4.15,4.15,0,0,1,1.8-1.42,7.09,7.09,0,0,1,5.33,0,4.18,4.18,0,0,1,1.81,1.42,3.64,3.64,0,0,1,.66,2.19,3.5,3.5,0,0,1-.65,2.11,3.8,3.8,0,0,1-1.78,1.32A7.47,7.47,0,0,1,946.87,499.2Zm0-2a2.26,2.26,0,0,0,1.51-.47,1.8,1.8,0,0,0,0-2.64,2.25,2.25,0,0,0-1.5-.48,2.21,2.21,0,0,0-1.48.48,1.84,1.84,0,0,0,0,2.64A2.23,2.23,0,0,0,946.87,497.24Zm17.83-6.05a5.92,5.92,0,0,1,3.17.83,5.46,5.46,0,0,1,2,2.42,10.81,10.81,0,0,1-.16,8.15,6.11,6.11,0,0,1-2.37,2.64,6.7,6.7,0,0,1-3.53.91,7.8,7.8,0,0,1-2-.25,4.91,4.91,0,0,1-1.67-.74l1.14-2.46a3.29,3.29,0,0,0,1.17.58,5.66,5.66,0,0,0,1.31.15,3.45,3.45,0,0,0,2.72-1.14,4.9,4.9,0,0,0,1-3.37c0-.24,0-.52,0-.82a7,7,0,0,0-.09-.91l.83.87a3.79,3.79,0,0,1-.91,1.36,4.18,4.18,0,0,1-1.36.83,5.32,5.32,0,0,1-1.75.26,4.87,4.87,0,0,1-2.32-.55,4.43,4.43,0,0,1-1.65-1.57,4.6,4.6,0,0,1-.6-2.38,4.81,4.81,0,0,1,.66-2.56,4.67,4.67,0,0,1,1.82-1.65A5.45,5.45,0,0,1,964.7,491.19Zm.19,2.5a2.37,2.37,0,0,0-1.16.27,1.85,1.85,0,0,0-.78.74,2.19,2.19,0,0,0-.29,1.14,2.16,2.16,0,0,0,.61,1.59,2.37,2.37,0,0,0,1.65.58,2.48,2.48,0,0,0,1.18-.27,2.08,2.08,0,0,0,.82-.79,2.18,2.18,0,0,0,.28-1.11,2.12,2.12,0,0,0-.28-1.1,1.85,1.85,0,0,0-.78-.76A2.54,2.54,0,0,0,964.89,493.69Zm13.29,12.45a5.12,5.12,0,0,1-2.92-.87,5.85,5.85,0,0,1-2-2.56,11.43,11.43,0,0,1,0-8.09,5.79,5.79,0,0,1,2-2.54,5.06,5.06,0,0,1,2.92-.89,5,5,0,0,1,2.93.89,5.79,5.79,0,0,1,2,2.54,11.43,11.43,0,0,1,0,8.09,5.85,5.85,0,0,1-2,2.56A5.06,5.06,0,0,1,978.18,506.14Zm0-2.83a2.07,2.07,0,0,0,1.35-.47,3,3,0,0,0,.91-1.51,10.32,10.32,0,0,0,0-5.33,3,3,0,0,0-.91-1.5,2,2,0,0,0-1.35-.48,2.06,2.06,0,0,0-1.34.48,3.15,3.15,0,0,0-.91,1.5,10.93,10.93,0,0,0,0,5.33,3.19,3.19,0,0,0,.91,1.51A2.11,2.11,0,0,0,978.18,503.31Zm9.55,2.58V492.68l1.33,1.45h-4v-2.69h5.73v14.45Zm5.65,0v-2.16l5.12-5.27a5.73,5.73,0,0,0,.89-1.07,3.15,3.15,0,0,0,.38-.87,2.46,2.46,0,0,0,.12-.72,1.63,1.63,0,0,0-.55-1.32,2.3,2.3,0,0,0-1.58-.48,3.52,3.52,0,0,0-1.55.35,3.14,3.14,0,0,0-1.2,1.1l-2.24-1.57a5.32,5.32,0,0,1,2.13-2,6.54,6.54,0,0,1,3.15-.73,5.83,5.83,0,0,1,2.58.54,3.88,3.88,0,0,1,1.72,1.47,4,4,0,0,1,.63,2.27,6.09,6.09,0,0,1-.17,1.4,4.64,4.64,0,0,1-.64,1.45,10.49,10.49,0,0,1-1.41,1.71l-4.25,4.36-.59-1.22h7.5v2.72Zm21.75.25a10,10,0,0,1-2.75-.39,7,7,0,0,1-2.32-1.16l1.2-2.56a5.83,5.83,0,0,0,1.76,1,6,6,0,0,0,2,.35,3,3,0,0,0,1.82-.49,1.73,1.73,0,0,0,.08-2.67,3.06,3.06,0,0,0-1.9-.47h-1.4v-2.21l3.7-4.56.34,1.2h-7v-2.69h9.3v2.17l-3.69,4.56-1.55-1h.89a5.16,5.16,0,0,1,3.7,1.2,4,4,0,0,1,1.25,3.07,4.64,4.64,0,0,1-.59,2.3,4.38,4.38,0,0,1-1.8,1.71A6.49,6.49,0,0,1,1015.13,506.14Zm7.15-3.28v-2.25l6.26-9.17h3.23l-6.13,9.17-1.5-.48h10.46v2.73Zm7.16,3v-3l.09-2.73v-2.7h2.91v8.46Zm11,.25a10,10,0,0,1-2.76-.39,7.16,7.16,0,0,1-2.31-1.16l1.21-2.56a6.23,6.23,0,0,0,3.78,1.3,3,3,0,0,0,1.82-.49,1.62,1.62,0,0,0,.67-1.39,1.84,1.84,0,0,0-.27-1,1.66,1.66,0,0,0-1-.66,6.14,6.14,0,0,0-1.88-.22h-3.4l.69-8.14h8.1v2.69h-7l1.59-1.53-.47,5.8-1.6-1.53h2.81a7.08,7.08,0,0,1,3.17.6,3.84,3.84,0,0,1,1.77,1.59,4.67,4.67,0,0,1,.55,2.29,5,5,0,0,1-.59,2.38,4.46,4.46,0,0,1-1.82,1.75A6.49,6.49,0,0,1,1040.42,506.14Zm13.09,0a5.86,5.86,0,0,1-3.17-.83,5.31,5.31,0,0,1-2-2.41,11,11,0,0,1,.13-8.16,6.33,6.33,0,0,1,2.39-2.64,6.87,6.87,0,0,1,3.53-.91,8.36,8.36,0,0,1,2,.25,5.11,5.11,0,0,1,1.67.74l-1.14,2.46a3.24,3.24,0,0,0-1.17-.56,5.17,5.17,0,0,0-1.31-.16,3.52,3.52,0,0,0-2.74,1.13,5,5,0,0,0-1,3.37v.83a5.53,5.53,0,0,0,.11.9l-.85-.86a4.16,4.16,0,0,1,.93-1.35,3.58,3.58,0,0,1,1.35-.82,5.12,5.12,0,0,1,1.74-.29,4.82,4.82,0,0,1,2.32.56,4.23,4.23,0,0,1,1.63,1.57,4.37,4.37,0,0,1,.63,2.37,4.69,4.69,0,0,1-.69,2.56,4.53,4.53,0,0,1-1.8,1.67A5.4,5.4,0,0,1,1053.51,506.14Zm-.17-2.5a2.38,2.38,0,0,0,1.13-.25,1.84,1.84,0,0,0,.8-.76,2.24,2.24,0,0,0,.29-1.13,2,2,0,0,0-.63-1.57,2.23,2.23,0,0,0-1.63-.6,2.32,2.32,0,0,0-1.2.29,2,2,0,0,0-.81.76,2.15,2.15,0,0,0-.29,1.12,2.19,2.19,0,0,0,.29,1.11,2.06,2.06,0,0,0,.79.76A2.67,2.67,0,0,0,1053.34,503.64Z" transform="translate(-827.38 -371)"/><path class="cls-1" d="M862.42,591a7.7,7.7,0,0,1-2.86-.53,7.09,7.09,0,0,1-2.28-1.57,7.63,7.63,0,0,1-1.52-2.38,8.7,8.7,0,0,1,0-6,7.63,7.63,0,0,1,1.52-2.38,6.82,6.82,0,0,1,2.3-1.55,7.25,7.25,0,0,1,2.86-.55,7.17,7.17,0,0,1,3.12.66,6,6,0,0,1,2.35,1.9l-2,2a4.55,4.55,0,0,0-1.52-1.26,3.91,3.91,0,0,0-1.82-.44,4.53,4.53,0,0,0-1.71.33,3.89,3.89,0,0,0-1.35.95,4.56,4.56,0,0,0-.89,1.47,5.86,5.86,0,0,0,0,3.76,4.41,4.41,0,0,0,.89,1.46,3.77,3.77,0,0,0,1.35.95,4.34,4.34,0,0,0,1.71.33,4,4,0,0,0,1.82-.41,4.82,4.82,0,0,0,1.52-1.3l2,2a6.24,6.24,0,0,1-2.35,1.92A7.23,7.23,0,0,1,862.42,591Zm6-.25,5.92-14.45h3l5.94,14.45h-3.23L875.19,578h1.22l-4.88,12.75Zm3-3.09.82-2.54H879l.83,2.54Zm13.7,3.09V576.26h5.75a6.92,6.92,0,0,1,3.07.64,4.6,4.6,0,0,1,2,1.8,5.45,5.45,0,0,1,.7,2.81,5.39,5.39,0,0,1-.7,2.78,4.56,4.56,0,0,1-2,1.78,7.06,7.06,0,0,1-3.07.62h-4l1.37-1.47v5.49Zm8.44,0-3.32-5.24h3.28l3.36,5.24Zm-5.37-5.12L886.74,584h3.88a3,3,0,0,0,2.12-.67,2.81,2.81,0,0,0,0-3.71,3,3,0,0,0-2.12-.66h-3.88l1.37-1.59Zm11.26,5.12V576.26h6a7.83,7.83,0,0,1,3.81.91,6.49,6.49,0,0,1,2.59,2.5,7.51,7.51,0,0,1,.93,3.82,7.59,7.59,0,0,1-.93,3.82,6.68,6.68,0,0,1-2.59,2.52,7.94,7.94,0,0,1-3.81.88Zm3.08-2.74h2.81a4.62,4.62,0,0,0,2.29-.54,3.71,3.71,0,0,0,1.52-1.57,5.4,5.4,0,0,0,0-4.75,3.59,3.59,0,0,0-1.52-1.54,4.42,4.42,0,0,0-2.29-.56h-2.81Zm22.09-11.71h3.08v14.45h-3.08Zm-6,14.45h-3.08V576.26h3.08Zm6.26-5.92h-6.49V582h6.49ZM937.6,591a7.46,7.46,0,0,1-2.93-.56,6.93,6.93,0,0,1-2.31-1.56,7.46,7.46,0,0,1-1.52-2.38,8.59,8.59,0,0,1,0-5.94,7.34,7.34,0,0,1,1.54-2.38,7,7,0,0,1,2.31-1.57,7.44,7.44,0,0,1,2.89-.55,7.28,7.28,0,0,1,2.88.55,6.82,6.82,0,0,1,2.3,1.57,7.34,7.34,0,0,1,1.54,2.38,7.85,7.85,0,0,1,.55,3,8.15,8.15,0,0,1-.55,3,7.34,7.34,0,0,1-1.54,2.38,6.89,6.89,0,0,1-2.3,1.54A7.09,7.09,0,0,1,937.6,591Zm0-2.85a4,4,0,0,0,1.63-.33,3.87,3.87,0,0,0,1.33-.95,4.2,4.2,0,0,0,.87-1.46,5.68,5.68,0,0,0,0-3.76,4.34,4.34,0,0,0-.87-1.47,3.84,3.84,0,0,0-1.31-.95,4.3,4.3,0,0,0-1.65-.33,4.22,4.22,0,0,0-1.65.33,3.93,3.93,0,0,0-1.31.95,4.76,4.76,0,0,0-.9,1.47,5.58,5.58,0,0,0-.3,1.88,5.74,5.74,0,0,0,.3,1.88,4.74,4.74,0,0,0,.88,1.46,3.78,3.78,0,0,0,1.33.95A4.05,4.05,0,0,0,937.58,588.11Zm10,2.6V576.26h3.07V588h6.66v2.72Zm11.83,0V576.26h6a7.83,7.83,0,0,1,3.81.91,6.47,6.47,0,0,1,2.58,2.5,7.51,7.51,0,0,1,.93,3.82,7.59,7.59,0,0,1-.93,3.82,6.65,6.65,0,0,1-2.58,2.52,7.94,7.94,0,0,1-3.81.88Zm3.08-2.74h2.8a4.63,4.63,0,0,0,2.3-.54,3.71,3.71,0,0,0,1.52-1.57,5.4,5.4,0,0,0,0-4.75,3.59,3.59,0,0,0-1.52-1.54,4.43,4.43,0,0,0-2.3-.56h-2.8Zm15.81-5.89h6.4v2.61h-6.4Zm.23,5.95h7.23v2.68H975.43V576.26h10V579h-7Zm10,2.68V576.26h5.76a6.92,6.92,0,0,1,3.07.64,4.52,4.52,0,0,1,2,1.8,5.36,5.36,0,0,1,.71,2.81,5.3,5.3,0,0,1-.71,2.78,4.48,4.48,0,0,1-2,1.78,7.06,7.06,0,0,1-3.07.62h-4l1.37-1.47v5.49Zm8.45,0-3.32-5.24H997l3.36,5.24Zm-5.37-5.12L990.25,584h3.87a3,3,0,0,0,2.13-.67,2.81,2.81,0,0,0,0-3.71,3,3,0,0,0-2.13-.66h-3.87l1.37-1.59Zm17,5.12V576.26h2.54l7.84,10.41h-1.24V576.26h3v14.45h-2.52l-7.86-10.4h1.23v10.4Zm14,0,5.92-14.45h3l5.94,14.45h-3.23L1029.41,578h1.22l-4.88,12.75Zm3-3.09.82-2.54h6.83l.83,2.54Zm13.7,3.09V576.26h2.54l5.65,10.2h-1.34l5.56-10.2h2.52l0,14.45h-2.88l0-9.64h.53l-4.44,8.12H1046l-4.54-8.12h.65v9.64Zm21.33-8.63h6.4v2.61h-6.4Zm.23,5.95h7.23v2.68h-10.29V576.26h10V579h-7Z" transform="translate(-827.38 -371)"/></svg>