<svg id="Layer_1" data-name="Layer 1" xmlns="http://www.w3.org/2000/svg" xmlns:xlink="http://www.w3.org/1999/xlink" viewBox="0 0 331.62 232.32"><defs><style>.cls-1{fill:#212429;}.cls-2{fill:#fff;}.cls-3{fill:url(#linear-gradient);}</style><linearGradient id="linear-gradient" x1="545.76" y1="759.21" x2="545.76" y2="720.49" gradientTransform="matrix(1, 0, 0, -1, 564, 1316)" gradientUnits="userSpaceOnUse"><stop offset="0" stop-color="#bdbdbd"/><stop offset="0.53" stop-color="#fff"/><stop offset="1" stop-color="#bdbdbd"/></linearGradient></defs><title>card-back</title><path class="cls-1" d="M852.31,389h281.76c13.77,0,24.93,12.84,24.93,28.68v175c0,15.84-11.16,28.68-24.93,28.68H852.31c-13.77,0-24.93-12.84-24.93-28.68v-175C827.38,401.84,838.54,389,852.31,389Z" transform="translate(-827.38 -389)"/><path class="cls-2" d="M854.38,448.23V428.16h8.53a7.34,7.34,0,0,1,4.93,1.43,4.74,4.74,0,0,1,1.68,3.79,5.42,5.42,0,0,1-.68,2.75,4.63,4.63,0,0,1-1.84,1.78,5.61,5.61,0,0,1-2.7.63l.48-1.18a6.4,6.4,0,0,1,2.92.64,4.38,4.38,0,0,1,2,1.8,5.6,5.6,0,0,1,.73,3,5,5,0,0,1-1.77,4,8.11,8.11,0,0,1-5.21,1.43Zm4-3.49h4.72a4.1,4.1,0,0,0,2.37-.58,2.57,2.57,0,0,0,0-3.76,3.8,3.8,0,0,0-2.37-.63h-5v-3.38h4.31a3.72,3.72,0,0,0,2.24-.57,2.12,2.12,0,0,0,.8-1.81,2,2,0,0,0-.8-1.75,3.58,3.58,0,0,0-2.24-.6h-4Zm12.76,3.49,7.78-20.07h4l7.81,20.07h-4.24l-6.39-17.72h1.6l-6.41,17.72Zm3.89-4.3,1.07-3.53h9l1.1,3.53Zm17.5,4.3V428.16h3.34l10.3,14.45h-1.63V428.16h4v20.07h-3.31L894.9,433.78h1.63v14.45ZM858,478.06l-.23-5.36,8.35-10.12h4.49l-7.53,9.32-2.24,2.75Zm-3.62,4.59V462.58h4v20.07Zm11.94,0-6.2-8.74,2.64-3.3,8.28,12Z" transform="translate(-827.38 -389)"/><path class="cls-2" d="M854.88,506.72V493.87l1.22,1.41h-3.67v-2.61h5.27v14.05Zm5.19,0v-2.11l4.71-5.12a5,5,0,0,0,.82-1,3.14,3.14,0,0,0,.35-.84,2.73,2.73,0,0,0,.11-.71,1.59,1.59,0,0,0-.51-1.28,2,2,0,0,0-1.45-.46,3,3,0,0,0-1.43.34,2.92,2.92,0,0,0-1.1,1.06L859.51,495a5.07,5.07,0,0,1,2-1.91,5.78,5.78,0,0,1,2.89-.7,5.12,5.12,0,0,1,2.38.52,3.78,3.78,0,0,1,1.59,1.42,4.15,4.15,0,0,1,.57,2.21,6.39,6.39,0,0,1-.15,1.37,4.72,4.72,0,0,1-.6,1.4,10,10,0,0,1-1.29,1.67L863,505.26l-.54-1.19h6.89v2.65Zm14.71.24a8.82,8.82,0,0,1-2.53-.38,6.34,6.34,0,0,1-2.13-1.12l1.1-2.49a5.83,5.83,0,0,0,1.62.92,5.32,5.32,0,0,0,1.87.34,2.66,2.66,0,0,0,1.68-.48,1.61,1.61,0,0,0,.61-1.33,1.58,1.58,0,0,0-.54-1.26,2.68,2.68,0,0,0-1.75-.46h-1.29v-2.15l3.4-4.44.32,1.17h-6.41v-2.61h8.55v2.1l-3.38,4.44-1.43-.94h.82a4.61,4.61,0,0,1,3.4,1.16,4.08,4.08,0,0,1,1.15,3,4.77,4.77,0,0,1-.54,2.23,4.1,4.1,0,0,1-1.66,1.67A5.63,5.63,0,0,1,874.78,507Zm6.58-3.19v-2.19l5.76-8.91h3l-5.64,8.91-1.38-.46h9.62v2.65Zm6.58,3v-3l.09-2.65v-2.63h2.67v8.23Zm15.39.24a8.77,8.77,0,0,1-2.53-.38,6.54,6.54,0,0,1-2.13-1.12l1.11-2.49a5.77,5.77,0,0,0,1.61.92,5.32,5.32,0,0,0,1.87.34,2.61,2.61,0,0,0,1.67-.48,1.61,1.61,0,0,0,.61-1.35,1.9,1.9,0,0,0-.24-1,1.54,1.54,0,0,0-.87-.64,5.27,5.27,0,0,0-1.73-.22h-3.13l.63-7.91h7.46v2.61h-6.45l1.47-1.49-.44,5.64L900.78,498h2.58a6.26,6.26,0,0,1,2.92.58,3.54,3.54,0,0,1,1.62,1.55,4.72,4.72,0,0,1,.51,2.22,4.92,4.92,0,0,1-.55,2.31,4.15,4.15,0,0,1-1.67,1.71A5.69,5.69,0,0,1,903.33,507Zm12,0a5.3,5.3,0,0,1-2.92-.8,5.18,5.18,0,0,1-1.88-2.35,11.15,11.15,0,0,1,.12-7.93,5.72,5.72,0,0,1,5.44-3.45,7.15,7.15,0,0,1,1.87.24,4.56,4.56,0,0,1,1.54.72l-1,2.39a2.75,2.75,0,0,0-1.08-.54,4.42,4.42,0,0,0-1.21-.16,3.09,3.09,0,0,0-2.51,1.1,5,5,0,0,0-.93,3.27v.81a6.61,6.61,0,0,0,.11.88l-.79-.84a4,4,0,0,1,.86-1.31,3.2,3.2,0,0,1,1.24-.8,4.37,4.37,0,0,1,1.6-.28,4.19,4.19,0,0,1,2.13.54,3.94,3.94,0,0,1,1.5,1.53,4.39,4.39,0,0,1,.58,2.3,4.8,4.8,0,0,1-.63,2.49,4.33,4.33,0,0,1-1.66,1.63A4.81,4.81,0,0,1,915.37,507Zm-.16-2.43a2.26,2.26,0,0,0,1-.24,1.86,1.86,0,0,0,.73-.74,2.33,2.33,0,0,0,.26-1.11,2,2,0,0,0-.58-1.52,2,2,0,0,0-1.5-.58,2.09,2.09,0,0,0-1.1.28,2,2,0,0,0-.75.74,2.21,2.21,0,0,0-.26,1.08,2.28,2.28,0,0,0,.26,1.09,2,2,0,0,0,.74.74A2.25,2.25,0,0,0,915.21,504.53Zm8.06,2.19,4.92-12.81.73,1.41h-6.58l1.26-1.53v3.82h-2.51v-4.94h9.79v2.1l-4.54,12Zm14,.24a6.42,6.42,0,0,1-2.69-.52,4.26,4.26,0,0,1-1.8-1.51,4,4,0,0,1-.64-2.28,3.83,3.83,0,0,1,.62-2.21,3.89,3.89,0,0,1,1.8-1.39,7.92,7.92,0,0,1,5.43,0,3.79,3.79,0,0,1,1.8,1.39,3.7,3.7,0,0,1,.64,2.21,4,4,0,0,1-.64,2.28,4.25,4.25,0,0,1-1.82,1.51A6.47,6.47,0,0,1,937.26,507Zm0-2.39a2.41,2.41,0,0,0,1.67-.54,1.86,1.86,0,0,0,.63-1.49,1.8,1.8,0,0,0-.63-1.46,2.84,2.84,0,0,0-3.33,0,1.82,1.82,0,0,0-.61,1.46,1.88,1.88,0,0,0,.61,1.49A2.42,2.42,0,0,0,937.26,504.57Zm0-4.35a6.31,6.31,0,0,1-2.48-.45,3.65,3.65,0,0,1-1.64-1.28,3.58,3.58,0,0,1-.58-2.05,3.71,3.71,0,0,1,.6-2.13,3.75,3.75,0,0,1,1.65-1.38,6.28,6.28,0,0,1,4.91,0,3.83,3.83,0,0,1,1.66,1.38,3.71,3.71,0,0,1,.61,2.13,3.44,3.44,0,0,1-2.24,3.33A6.36,6.36,0,0,1,937.26,500.22Zm0-1.91a2,2,0,0,0,1.39-.46,1.81,1.81,0,0,0,0-2.57,2,2,0,0,0-1.38-.46,2,2,0,0,0-1.36.46,1.85,1.85,0,0,0,0,2.57A2,2,0,0,0,937.26,498.31Zm16.39-5.88a4.88,4.88,0,0,1,4.8,3.15,11,11,0,0,1-.14,7.93,5.67,5.67,0,0,1-5.43,3.45,7.17,7.17,0,0,1-1.85-.24,4.51,4.51,0,0,1-1.53-.72l1-2.39a2.94,2.94,0,0,0,1.08.56,5.19,5.19,0,0,0,1.2.14,3.11,3.11,0,0,0,2.5-1.1,4.94,4.94,0,0,0,.94-3.28c0-.24,0-.5,0-.8a8.72,8.72,0,0,0-.08-.88l.76.84a3.62,3.62,0,0,1-.83,1.33,3.92,3.92,0,0,1-1.26.8,4.77,4.77,0,0,1-1.61.26,4.27,4.27,0,0,1-2.13-.54,4.11,4.11,0,0,1-1.51-1.53,4.49,4.49,0,0,1-.56-2.31,4.84,4.84,0,0,1,.61-2.49,4.35,4.35,0,0,1,1.67-1.6A4.78,4.78,0,0,1,953.65,492.43Zm.18,2.43a2.07,2.07,0,0,0-1.07.26,1.7,1.7,0,0,0-.71.72,2.46,2.46,0,0,0,.29,2.65,2.11,2.11,0,0,0,1.52.56,2.21,2.21,0,0,0,1.08-.26,1.89,1.89,0,0,0,.75-.76,2.2,2.2,0,0,0,.27-1.09,2.06,2.06,0,0,0-.27-1.06,1.69,1.69,0,0,0-.71-.74A2.18,2.18,0,0,0,953.83,494.86ZM966.06,507a4.54,4.54,0,0,1-2.69-.84,5.82,5.82,0,0,1-1.87-2.49,11.73,11.73,0,0,1,0-7.87,5.58,5.58,0,0,1,1.87-2.47,4.64,4.64,0,0,1,5.38,0,5.49,5.49,0,0,1,1.86,2.47,11.73,11.73,0,0,1,0,7.87,5.73,5.73,0,0,1-1.86,2.49A4.5,4.5,0,0,1,966.06,507Zm0-2.75a1.8,1.8,0,0,0,1.24-.46,3,3,0,0,0,.83-1.47,10.64,10.64,0,0,0,0-5.18,2.92,2.92,0,0,0-.83-1.46,1.8,1.8,0,0,0-1.24-.46,1.83,1.83,0,0,0-1.24.46,3.16,3.16,0,0,0-.84,1.46,11.33,11.33,0,0,0,0,5.18,3.2,3.2,0,0,0,.84,1.47A1.83,1.83,0,0,0,966.06,504.21Zm8.77,2.51V493.87l1.22,1.41h-3.66v-2.61h5.27v14.05Zm5.2,0v-2.11l4.71-5.12a5.4,5.4,0,0,0,.82-1,3.14,3.14,0,0,0,.35-.84,2.69,2.69,0,0,0,.1-.71,1.59,1.59,0,0,0-.5-1.28,2,2,0,0,0-1.45-.46,3,3,0,0,0-1.43.34,2.92,2.92,0,0,0-1.1,1.06L979.47,495a5,5,0,0,1,1.95-1.91,5.84,5.84,0,0,1,2.9-.7,5.12,5.12,0,0,1,2.38.52,3.7,3.7,0,0,1,1.58,1.42,4.07,4.07,0,0,1,.58,2.21,5.82,5.82,0,0,1-.16,1.37,4.43,4.43,0,0,1-.59,1.4,10,10,0,0,1-1.29,1.67l-3.91,4.24-.54-1.19h6.89v2.65ZM857,531.34a8.82,8.82,0,0,1-2.53-.38,6.43,6.43,0,0,1-2.13-1.12l1.1-2.49a5.75,5.75,0,0,0,1.63.92,5.27,5.27,0,0,0,1.86.34,2.66,2.66,0,0,0,1.68-.48,1.75,1.75,0,0,0,.07-2.59,2.66,2.66,0,0,0-1.75-.46h-1.29v-2.15l3.41-4.44.31,1.17H852.9v-2.61h8.56v2.1l-3.39,4.44-1.43-.94h.82a4.59,4.59,0,0,1,3.4,1.16,4.09,4.09,0,0,1,1.16,3,4.78,4.78,0,0,1-.55,2.23,4.14,4.14,0,0,1-1.65,1.67A5.7,5.7,0,0,1,857,531.34Zm6.58-3.19V526l5.76-8.91h3L866.62,526l-1.38-.46h9.62v2.65Zm6.58,3v-3l.09-2.65v-2.63h2.67v8.23Zm10.1.24a8.77,8.77,0,0,1-2.53-.38,6.54,6.54,0,0,1-2.13-1.12l1.11-2.49a5.77,5.77,0,0,0,1.61.92,5.32,5.32,0,0,0,1.87.34,2.63,2.63,0,0,0,1.67-.48,1.61,1.61,0,0,0,.61-1.35,1.9,1.9,0,0,0-.24-1,1.57,1.57,0,0,0-.87-.64,5.27,5.27,0,0,0-1.73-.22h-3.13l.63-7.91h7.45v2.61h-6.44l1.47-1.49-.44,5.64-1.46-1.48h2.58a6.26,6.26,0,0,1,2.92.58,3.54,3.54,0,0,1,1.62,1.55,4.72,4.72,0,0,1,.51,2.22,4.92,4.92,0,0,1-.55,2.31,4.15,4.15,0,0,1-1.67,1.71A5.69,5.69,0,0,1,880.21,531.34Zm12,0a4.91,4.91,0,0,1-4.8-3.15,9.73,9.73,0,0,1-.66-3.82,9.6,9.6,0,0,1,.79-4.11,5.72,5.72,0,0,1,5.44-3.45,7.15,7.15,0,0,1,1.87.24,4.56,4.56,0,0,1,1.54.72l-1,2.39a2.75,2.75,0,0,0-1.08-.54,4.42,4.42,0,0,0-1.21-.16,3.09,3.09,0,0,0-2.51,1.1,5,5,0,0,0-.93,3.27v.81a6.82,6.82,0,0,0,.11.88l-.79-.84a4,4,0,0,1,.86-1.31,3.2,3.2,0,0,1,1.24-.8,4.37,4.37,0,0,1,1.6-.28,4.22,4.22,0,0,1,2.13.54,4,4,0,0,1,1.5,1.52,4.45,4.45,0,0,1,.58,2.31,4.8,4.8,0,0,1-.63,2.49,4.33,4.33,0,0,1-1.66,1.63A4.82,4.82,0,0,1,892.24,531.34Zm-.15-2.43a2.19,2.19,0,0,0,1-.24,1.82,1.82,0,0,0,.74-.74,2.33,2.33,0,0,0,.26-1.11,2,2,0,0,0-.58-1.52,2,2,0,0,0-1.5-.58,2.09,2.09,0,0,0-1.1.28,2,2,0,0,0-.75.74,2.21,2.21,0,0,0-.26,1.08,2.28,2.28,0,0,0,.26,1.09,2,2,0,0,0,.74.74A2.25,2.25,0,0,0,892.09,528.91Z" transform="translate(-827.38 -389)"/><rect y="53.87" width="331.62" height="53.87"/><path class="cls-3" d="M1134.05,562.59l0,27.08a5.81,5.81,0,0,1-5.75,5.81l-37.07,0a5.81,5.81,0,0,1-5.78-5.8l0-27.08a5.8,5.8,0,0,1,5.77-5.81l37.08,0A5.78,5.78,0,0,1,1134.05,562.59Z" transform="translate(-827.38 -389)"/><path class="cls-2" d="M1053,584.65a5.12,5.12,0,0,1-2.79-.78,5.48,5.48,0,0,1-1.91-2.18,7.62,7.62,0,0,1,0-6.38,5.39,5.39,0,0,1,1.91-2.15,5.12,5.12,0,0,1,2.79-.78,5,5,0,0,1,2.42.59,4.25,4.25,0,0,1,1.69,1.79l-1.06.83a3.57,3.57,0,0,0-5.08-1.19,4,4,0,0,0-1.42,1.62,6.17,6.17,0,0,0,0,5,4.1,4.1,0,0,0,1.42,1.65,3.72,3.72,0,0,0,3.75.14,3.46,3.46,0,0,0,1.33-1.33l1.06.83a4.43,4.43,0,0,1-1.69,1.79A5,5,0,0,1,1053,584.65Zm9.43-.11-4.65-12h1.48l4.27,11.18h-.7l4.33-11.18h1.4l-4.67,12Zm10.71,0-4.64-12H1070l4.27,11.18h-.7l4.33-11.18h1.4l-4.67,12Z" transform="translate(-827.38 -389)"/></svg>