<svg id="Layer_1" data-name="Layer 1" xmlns="http://www.w3.org/2000/svg" xmlns:xlink="http://www.w3.org/1999/xlink" viewBox="0 0 56 56"><defs><style>.cls-1,.cls-4{fill:none;}.cls-2{fill:#fff;}.cls-3{clip-path:url(#clip-path);}.cls-4{stroke:#000;stroke-linecap:round;stroke-linejoin:round;stroke-width:2px;}</style><clipPath id="clip-path" transform="translate(-932.38 -512.32)"><rect class="cls-1" x="943.58" y="523.52" width="33.6" height="33.6"/></clipPath></defs><title>delivery</title><circle class="cls-2" cx="28" cy="28" r="28"/><g class="cls-3"><path class="cls-4" d="M969.48,552.92a3.5,3.5,0,1,0-3.5-3.5A3.5,3.5,0,0,0,969.48,552.92Z" transform="translate(-932.38 -512.32)"/><path class="cls-4" d="M951.28,552.92a3.5,3.5,0,1,0-3.5-3.5A3.5,3.5,0,0,0,951.28,552.92Z" transform="translate(-932.38 -512.32)"/><path class="cls-4" d="M966,534.72h5.6l4.2,4.2v7H966Z" transform="translate(-932.38 -512.32)"/><path class="cls-4" d="M966,527.72H945v18.2h21Z" transform="translate(-932.38 -512.32)"/></g></svg>