<svg id="Layer_1" data-name="Layer 1" xmlns="http://www.w3.org/2000/svg" viewBox="0 0 21.08 21.08"><defs><style>.cls-1{fill:none;stroke:#fff;stroke-linejoin:round;stroke-width:2.08px;}</style></defs><title>instagram</title><path class="cls-1" d="M950.94,536.07a7.06,7.06,0,0,1,.42-2.24h0a4.22,4.22,0,0,1,1-1.51h0a4.22,4.22,0,0,1,1.51-1h0a6.54,6.54,0,0,1,2.24-.42m-5.18,5.18c-.05,1.09-.06,1.43-.06,4.26s0,3.17.06,4.26m0-8.52v.27m.43,10.5a4,4,0,0,0,1,1.51h0a4.22,4.22,0,0,0,1.51,1h0a6.76,6.76,0,0,0,2.24.43m-4.75-2.94h0a6.74,6.74,0,0,1-.42-2.24m.43,2.25,0-.07m-.41-2.18,0,.09m0-.09v-.27m.41,2.45-.39-2.09m.39,2.09a6.45,6.45,0,0,1-.39-2.09m.39,2.09,0,.05a4.08,4.08,0,0,0,1,1.53,4.16,4.16,0,0,0,1.53,1,6.74,6.74,0,0,0,2.23.42c1.12,0,1.47.06,4.26.06s3.14,0,4.27-.06a6.61,6.61,0,0,0,2.22-.42,4.08,4.08,0,0,0,1.53-1,4.23,4.23,0,0,0,1-1.53,6.89,6.89,0,0,0,.42-2.23c0-1.12.06-1.47.06-4.26s0-3.14-.06-4.26a7,7,0,0,0-.43-2.24,4.13,4.13,0,0,0-1-1.52,4.17,4.17,0,0,0-1.52-1,6.68,6.68,0,0,0-2.23-.42h-.28M951,544.68v-.09c0-.09,0-.19,0-.27m5.18-13.43c1.09,0,1.43-.07,4.26-.07s3.17,0,4.26.07m-8.52,0h.28m8.24,0h-.27m.27,0a6.56,6.56,0,0,1,2.25.42h0a4.13,4.13,0,0,1,1.51,1h0a4.19,4.19,0,0,1,1,1.51h0a6.76,6.76,0,0,1,.43,2.24m-13.43-5.18h8m-8,0c.92,0,1.43,0,4,0s3.06,0,4,0m-8,0h-.28a6.74,6.74,0,0,0-2.23.42,4,4,0,0,0-1.53,1,4.13,4.13,0,0,0-1,1.51,6.76,6.76,0,0,0-.42,2.24c0,.1,0,.19,0,.27m18.89,8.25a6.7,6.7,0,0,1-.43,2.24h0a4.11,4.11,0,0,1-1,1.51h0a4.13,4.13,0,0,1-1.51,1h0a6.65,6.65,0,0,1-2.24.43m-13.7-5.46c0-.93-.05-1.44-.05-4s0-3.06.05-4m0,8v-8m7.75,8.07a4.42,4.42,0,0,0,4.82-.95,4.43,4.43,0,0,0-3.13-7.55,4.42,4.42,0,0,0-3.12,1.3,4.34,4.34,0,0,0-1,1.43,4.43,4.43,0,0,0,1,4.82A4.42,4.42,0,0,0,958.69,544.41Zm-1.44-7.21a4.42,4.42,0,1,1-1.3,3.13A4.44,4.44,0,0,1,957.25,537.2Zm10.06-2.33a1.24,1.24,0,0,1-.37.89,1.27,1.27,0,0,1-.9.38,1.3,1.3,0,0,1-1.27-1.27,1.27,1.27,0,0,1,.38-.9,1.24,1.24,0,0,1,.89-.37,1.26,1.26,0,0,1,1.27,1.27Z" transform="translate(-949.84 -529.78)"/></svg>