<svg id="Layer_1" data-name="Layer 1" xmlns="http://www.w3.org/2000/svg" viewBox="0 0 22.08 22.08"><defs><style>.cls-1{fill:none;stroke:#fff;stroke-linejoin:round;stroke-width:2.08px;}</style></defs><title>tiktok</title><path class="cls-1" d="M970.38,534.12a8.18,8.18,0,0,1-2.36.65,4.07,4.07,0,0,0,1.8-2.27,8.1,8.1,0,0,1-2.6,1,4.11,4.11,0,0,0-7.1,2.81,4.24,4.24,0,0,0,.11.94,11.69,11.69,0,0,1-8.46-4.29,4.1,4.1,0,0,0,1.27,5.48,4.17,4.17,0,0,1-1.86-.52V538a4.11,4.11,0,0,0,3.29,4,4.2,4.2,0,0,1-1.08.14,3.94,3.94,0,0,1-.77-.07,4.1,4.1,0,0,0,3.83,2.85,8.22,8.22,0,0,1-5.09,1.76,7.82,7.82,0,0,1-1-.06,11.67,11.67,0,0,0,18-9.83c0-.18,0-.36,0-.53a8.11,8.11,0,0,0,2-2.13Z" transform="translate(-949.34 -529.28)"/><path class="cls-1" d="M965.49,533.46a4.73,4.73,0,0,1-1.18-3.14h-.92m2.1,3.14a4.72,4.72,0,0,0,2.6,1.54,4.64,4.64,0,0,0,1,.11v3.43a8.23,8.23,0,0,1-4.78-1.53v7a6.33,6.33,0,1,1-6.48-6.32m7.66-4.22-.06,0m-9.78,12.26A2.89,2.89,0,0,1,958,541.1a2.7,2.7,0,0,1,.85.14v-3.51a6,6,0,0,0-.85-.06l-.52,0m5.92-7.37h-2.52V544.1a2.89,2.89,0,0,1-5.23,1.58" transform="translate(-949.34 -529.28)"/></svg>