<svg id="Layer_1" data-name="Layer 1" xmlns="http://www.w3.org/2000/svg" viewBox="0 0 22.08 18.33"><defs><style>.cls-1{fill:none;stroke:#fff;stroke-linejoin:round;stroke-width:2.08px;}</style></defs><title>twitter</title><path class="cls-1" d="M970.38,534.12a8.18,8.18,0,0,1-2.36.65,4.07,4.07,0,0,0,1.8-2.27,8.1,8.1,0,0,1-2.6,1,4.11,4.11,0,0,0-7.1,2.81,4.24,4.24,0,0,0,.11.94,11.69,11.69,0,0,1-8.46-4.29,4.1,4.1,0,0,0,1.27,5.48,4.17,4.17,0,0,1-1.86-.52V538a4.11,4.11,0,0,0,3.29,4,4.2,4.2,0,0,1-1.08.14,3.94,3.94,0,0,1-.77-.07,4.1,4.1,0,0,0,3.83,2.85,8.22,8.22,0,0,1-5.09,1.76,7.82,7.82,0,0,1-1-.06,11.67,11.67,0,0,0,18-9.83c0-.18,0-.36,0-.53a8.11,8.11,0,0,0,2-2.13Z" transform="translate(-949.34 -531.16)"/></svg>