<svg id="Layer_1" data-name="Layer 1" xmlns="http://www.w3.org/2000/svg" viewBox="0 0 24.08 17.48"><defs><style>.cls-1{fill:none;stroke:#fff;stroke-linejoin:round;stroke-width:2.08px;}</style></defs><title>youtube</title><path class="cls-1" d="M969,533.08a2.78,2.78,0,0,1,1.95,1.95,29.48,29.48,0,0,1,.46,5.29,28.62,28.62,0,0,1-.46,5.3,2.78,2.78,0,0,1-1.95,2c-1.71.46-8.59.46-8.59.46s-6.88,0-8.6-.46a2.75,2.75,0,0,1-1.94-2,30.71,30.71,0,0,1,0-10.59,2.75,2.75,0,0,1,1.94-1.95c1.72-.46,8.6-.46,8.6-.46S967.26,532.62,969,533.08Zm-5.08,7.24-5.72,3.3V537Z" transform="translate(-948.34 -531.58)"/></svg>